<?xml version="1.0" standalone="no"?>
<!DOCTYPE svg PUBLIC "-//W3C//DTD SVG 20010904//EN"
 "http://www.w3.org/TR/2001/REC-SVG-20010904/DTD/svg10.dtd">
<svg version="1.0" xmlns="http://www.w3.org/2000/svg"
 width="256.000000pt" height="256.000000pt" viewBox="0 0 256.000000 256.000000"
 preserveAspectRatio="xMidYMid meet">

<g transform="translate(0.000000,256.000000) scale(0.100000,-0.100000)"
fill="#000000" stroke="none">
<path d="M305 2545 c-74 -16 -127 -44 -183 -98 -60 -57 -90 -112 -107 -193
-22 -102 -22 -1846 0 -1948 17 -81 47 -136 107 -193 57 -55 108 -82 187 -99
97 -20 1845 -20 1942 0 79 17 130 44 187 99 60 57 90 112 107 193 22 102 22
1846 0 1948 -17 81 -47 136 -107 193 -57 55 -108 82 -187 99 -94 20 -1855 19
-1946 -1z m1465 -1027 c0 -502 -3 -626 -15 -683 -53 -251 -255 -405 -530 -405
-169 0 -292 42 -390 131 -130 120 -183 356 -110 499 46 90 159 160 258 160 88
0 82 12 82 -193 0 -201 4 -220 65 -271 27 -22 41 -26 94 -26 76 0 118 24 150
85 20 39 21 56 24 528 l3 487 -176 0 -175 0 0 111 c0 61 5 119 11 130 5 11 25
29 42 39 30 19 53 20 350 20 l317 0 0 -612z"/>
</g>
</svg>
